<svg xmlns="http://www.w3.org/2000/svg" version="1.1" xmlns:xlink="http://www.w3.org/1999/xlink" xmlns:svgjs="http://svgjs.com/svgjs" width="1285" height="675" preserveAspectRatio="none" viewBox="0 0 1285 675"><g mask="url(&quot;#SvgjsMask1305&quot;)" fill="none"><path d="M635.71 129.72 a136.76 136.76 0 1 0 273.52 0 a136.76 136.76 0 1 0 -273.52 0z" fill="rgba(194, 188, 22, 0.4)" class="triangle-float1"></path><path d="M1103.846,226.185C1153.043,225.702,1194.05,190.652,1216.378,146.811C1236.706,106.897,1229.74,60.87,1207.98,21.719C1185.463,-18.794,1150.175,-54.262,1103.846,-55.661C1055.439,-57.123,1012.156,-27.016,988.215,15.081C964.552,56.69,964.423,107.078,987.418,149.06C1011.387,192.82,1053.954,226.675,1103.846,226.185" fill="rgba(194, 188, 22, 0.4)" class="triangle-float1"></path><path d="M518.5412276929032 482.6629282836201L588.6353174203664 647.794255398326 753.7666445350724 577.7001656708629 683.6725548076092 412.56883855615695z" fill="rgba(194, 188, 22, 0.4)" class="triangle-float2"></path><path d="M4.982178778367036 300.92635709604133L116.71467804695641 243.99580518307738 59.78412613399245 132.263305914488-51.94837313459691 189.19385782745195z" fill="rgba(194, 188, 22, 0.4)" class="triangle-float2"></path><path d="M142.76881104570003 159.67137488501987L45.312696937567075 359.003650196986 239.00552179733347 348.8526393830265z" fill="rgba(194, 188, 22, 0.4)" class="triangle-float3"></path><path d="M430.828,313.698C480.819,313.487,529.93,294.25,556.312,251.787C584.154,206.974,590.206,148.12,560.993,104.188C533.99,63.58,479.465,59.527,430.828,63.079C389.351,66.108,353.068,86.532,329.897,121.066C303.142,160.941,281.209,210.321,303.495,252.855C326.895,297.514,380.41,313.911,430.828,313.698" fill="rgba(194, 188, 22, 0.4)" class="triangle-float1"></path><path d="M412.53 315.45 a133.5 133.5 0 1 0 267 0 a133.5 133.5 0 1 0 -267 0z" fill="rgba(194, 188, 22, 0.4)" class="triangle-float2"></path><path d="M902.489,873.719C955.79,874.763,1002.503,837.667,1025.824,789.727C1046.624,746.969,1030.957,699.252,1007.473,657.907C983.603,615.883,950.79,574.274,902.489,572.593C851.941,570.834,808.156,605.673,784.04,650.133C761.051,692.517,764.674,742.448,787.246,785.055C811.565,830.959,850.551,872.702,902.489,873.719" fill="rgba(194, 188, 22, 0.4)" class="triangle-float1"></path><path d="M1167.1322644236886 486.18620119634693L1035.4474953746083 518.8856333639088 1116.3387087027322 605.6308394529206z" fill="rgba(194, 188, 22, 0.4)" class="triangle-float2"></path><path d="M-22.095,475.434C2.094,476.58,25.326,464.44,37.787,443.676C50.61,422.31,51.135,395.598,38.822,373.933C26.365,352.014,3.102,337.474,-22.095,338.311C-46.057,339.107,-65.535,356.38,-76.383,377.76C-86.207,397.122,-83.444,419.455,-72.896,438.433C-61.988,458.058,-44.523,474.372,-22.095,475.434" fill="rgba(194, 188, 22, 0.4)" class="triangle-float2"></path><path d="M-45.13 526.07 a134.09 134.09 0 1 0 268.18 0 a134.09 134.09 0 1 0 -268.18 0z" fill="rgba(194, 188, 22, 0.4)" class="triangle-float3"></path><path d="M76.53266917271422 679.027817765992L148.13437418460848 732.9835725719705 193.26715388762898 598.6031376511398z" fill="rgba(194, 188, 22, 0.4)" class="triangle-float2"></path><path d="M98.20264096384639 228.5343789794918L188.54452299212488 116.97144574674567 76.98158975937876 26.629563718467182-13.360292268899741 138.1924969512133z" fill="rgba(194, 188, 22, 0.4)" class="triangle-float1"></path><path d="M946.404,451.913C973.565,451.588,998.89,437.531,1012.232,413.871C1025.35,390.609,1021.68,363.165,1009.99,339.153C996.265,310.959,977.75,279.485,946.404,278.652C914.25,277.797,891.099,306.858,876.681,335.61C863.889,361.119,863.117,391.003,877.79,415.479C892.061,439.284,918.651,452.245,946.404,451.913" fill="rgba(194, 188, 22, 0.4)" class="triangle-float2"></path><path d="M327.197,729.717C388.167,733.641,454.116,719.957,486.818,668.35C521.399,613.778,512.495,543.81,480.605,487.623C448.262,430.639,392.714,386.223,327.197,387.114C262.939,387.988,208.924,433.892,180.85,491.7C155.992,542.885,169.79,601.393,199.594,649.865C227.762,695.677,273.529,726.263,327.197,729.717" fill="rgba(194, 188, 22, 0.4)" class="triangle-float3"></path><path d="M1045.327,418.44C1086.214,416.999,1113.36,380.739,1133.118,344.914C1152.004,310.671,1165.885,269.775,1145.841,236.197C1126.141,203.195,1083.716,195.962,1045.327,197.847C1010.667,199.549,979.396,216.142,960.574,245.296C939.803,277.467,929.286,317.11,946.122,351.505C964.92,389.907,1002.598,419.946,1045.327,418.44" fill="rgba(194, 188, 22, 0.4)" class="triangle-float3"></path></g><defs><mask id="SvgjsMask1305"><rect width="1285" height="675" fill="#ffffff"></rect></mask><style>
            @keyframes float1 {
                0%{transform: translate(0, 0)}
                50%{transform: translate(-10px, 0)}
                100%{transform: translate(0, 0)}
            }

            .triangle-float1 {
                animation: float1 5s infinite;
            }

            @keyframes float2 {
                0%{transform: translate(0, 0)}
                50%{transform: translate(-5px, -5px)}
                100%{transform: translate(0, 0)}
            }

            .triangle-float2 {
                animation: float2 4s infinite;
            }

            @keyframes float3 {
                0%{transform: translate(0, 0)}
                50%{transform: translate(0, -10px)}
                100%{transform: translate(0, 0)}
            }

            .triangle-float3 {
                animation: float3 6s infinite;
            }
        </style></defs></svg>