<svg xmlns="http://www.w3.org/2000/svg" version="1.1" xmlns:xlink="http://www.w3.org/1999/xlink" xmlns:svgjs="http://svgjs.com/svgjs" width="1285" height="675" preserveAspectRatio="none" viewBox="0 0 1285 675"><g mask="url(&quot;#SvgjsMask1229&quot;)" fill="none"><path d="M807.9054785147301 295.5612268356906L934.7036755712197 277.74090238261334 844.5740903633589 96.45376902441757z" fill="rgba(47, 127, 216, 0.4)" class="triangle-float1"></path><path d="M416.0862461238462 384.23698617671135L518.3154733904997 349.0366403435378 414.4003410074126 213.29297236014418z" fill="rgba(47, 127, 216, 0.4)" class="triangle-float1"></path><path d="M1150.596,292.407C1197.061,292.034,1238.19,266.61,1263.316,227.523C1290.98,184.488,1305.797,131.763,1283.441,85.746C1258.369,34.138,1207.867,-7.971,1150.596,-4.494C1097.032,-1.242,1066.858,52.258,1043.028,100.34C1022.517,141.726,1012.126,189.059,1034.696,229.359C1057.729,270.485,1103.461,292.786,1150.596,292.407" fill="rgba(47, 127, 216, 0.4)" class="triangle-float1"></path><path d="M1282.7637147039964 325.61130778272303L1293.446070595492 223.9754806013212 1135.6511518776415 258.76986035477864z" fill="rgba(47, 127, 216, 0.4)" class="triangle-float2"></path><path d="M554.3801707926305 21.60886108375037L570.7371084356475 137.99451993980068 670.7658296486808 5.251923440733233z" fill="rgba(47, 127, 216, 0.4)" class="triangle-float2"></path><path d="M433.47480829663306 549.6899888791861L420.88742869135365 460.12612915162475 292.8353289026512 523.7891284233245z" fill="rgba(47, 127, 216, 0.4)" class="triangle-float1"></path><path d="M202.44777446207223 398.8278164513394L268.91985132877835 509.45593012982476 313.0758881405576 332.3557395846333z" fill="rgba(47, 127, 216, 0.4)" class="triangle-float2"></path><path d="M82.08435561871447 8.454423361476316L30.997882884402216 61.356014502492066 135.89350596308196 111.53492803345256z" fill="rgba(47, 127, 216, 0.4)" class="triangle-float1"></path><path d="M1129.5394240688943 104.91632170260259L1158.6953628458875-44.31851481353422 1032.2799005555876-3.2436412070275793z" fill="rgba(47, 127, 216, 0.4)" class="triangle-float1"></path><path d="M175.00360005942633 203.37923314931032L328.75306898658584 162.18218711356394 287.5560229508395 8.4327181864044 133.80655402367995 49.62976422215078z" fill="rgba(47, 127, 216, 0.4)" class="triangle-float2"></path><path d="M413.8067684644089 623.8341476833859L451.4489068797005 483.3517746119773 310.96653380829184 445.7096361966857 273.32439539300026 586.1920092680944z" fill="rgba(47, 127, 216, 0.4)" class="triangle-float2"></path><path d="M883.742,483.438C931.029,483.724,979.092,469.977,1005.027,430.435C1033.489,387.04,1040.475,329.833,1013.614,285.429C987.498,242.256,934.199,229.875,883.742,229.934C833.415,229.993,780.186,242.516,754.398,285.734C728.104,329.801,736.88,386.039,764.974,428.981C790.529,468.043,837.064,483.155,883.742,483.438" fill="rgba(47, 127, 216, 0.4)" class="triangle-float1"></path><path d="M923.710198998851 249.37563038670316L828.0854785827865 122.47734033966533 796.8119089518132 345.00035080276757z" fill="rgba(47, 127, 216, 0.4)" class="triangle-float3"></path><path d="M878.7913778368875 676.0787294806868L1032.1326643637742 689.4943537022698 1045.548288585357 536.1530671753832 892.2070020584705 522.7374429538002z" fill="rgba(47, 127, 216, 0.4)" class="triangle-float2"></path><path d="M1085.0275155186353 217.6479777825828L1034.9164647777127 341.67718068231693 1158.9456676774469 391.7882314232394 1209.0567184183694 267.75902852350526z" fill="rgba(47, 127, 216, 0.4)" class="triangle-float1"></path><path d="M376.1092435958224 544.2691085215961L228.9626403410954 441.2359477006829 125.92947952018221 588.3825509554099 273.07608277490925 691.4157117763231z" fill="rgba(47, 127, 216, 0.4)" class="triangle-float2"></path><path d="M826.1498436737782 292.9227746987998L952.2459574428076 153.14696898093064 791.9047745866403 116.12929013199417z" fill="rgba(47, 127, 216, 0.4)" class="triangle-float1"></path></g><defs><mask id="SvgjsMask1229"><rect width="1285" height="675" fill="#ffffff"></rect></mask><style>
            @keyframes float1 {
                0%{transform: translate(0, 0)}
                50%{transform: translate(-10px, 0)}
                100%{transform: translate(0, 0)}
            }

            .triangle-float1 {
                animation: float1 5s infinite;
            }

            @keyframes float2 {
                0%{transform: translate(0, 0)}
                50%{transform: translate(-5px, -5px)}
                100%{transform: translate(0, 0)}
            }

            .triangle-float2 {
                animation: float2 4s infinite;
            }

            @keyframes float3 {
                0%{transform: translate(0, 0)}
                50%{transform: translate(0, -10px)}
                100%{transform: translate(0, 0)}
            }

            .triangle-float3 {
                animation: float3 6s infinite;
            }
        </style></defs></svg>