<svg xmlns="http://www.w3.org/2000/svg" version="1.1" xmlns:xlink="http://www.w3.org/1999/xlink" xmlns:svgjs="http://svgjs.com/svgjs" width="1285" height="675" preserveAspectRatio="none" viewBox="0 0 1285 675"><g mask="url(&quot;#SvgjsMask1231&quot;)" fill="none"><path d="M900.162107761402 362.37467937505534L767.9994356702159 339.0708344428536 744.6955907380142 471.23350653403963 876.8582628292003 494.5373514662414z" fill="rgba(194, 188, 22, 0.4)" class="triangle-float1"></path><path d="M163.54015097964086 262.4076708817104L352.11064717914576 262.4076708817103 352.11064717914576 73.83717468220544 163.54015097964083 73.83717468220547z" fill="rgba(194, 188, 22, 0.4)" class="triangle-float1"></path><path d="M380.8552674663167 513.2684275975607L492.346543041706 526.9578349135896 506.035950357735 415.46655933820034 394.5446747823456 401.77715202217144z" fill="rgba(194, 188, 22, 0.4)" class="triangle-float2"></path><path d="M201.16912598087322 761.8124299443474L341.987477773523 666.829252332492 106.18594836901785 620.9940781516976z" fill="rgba(194, 188, 22, 0.4)" class="triangle-float1"></path><path d="M1189.7599726065757 326.2531969943818L1179.3664927147404 177.61950981539783 1030.7328055357564 188.01298970723323 1041.1262854275917 336.6466768862172z" fill="rgba(194, 188, 22, 0.4)" class="triangle-float3"></path><path d="M928.587351654246 582.2818550853045L1064.408009977582 700.3489520872495 1046.6544486561909 446.4611967619687z" fill="rgba(194, 188, 22, 0.4)" class="triangle-float2"></path><path d="M345.98708130675533 766.4086288900148L524.0749226977523 711.9617117820434 469.6280055897809 533.8738703910465 291.54016419878394 588.3207874990178z" fill="rgba(194, 188, 22, 0.4)" class="triangle-float2"></path><path d="M362.064,356.482C403.675,353.056,440.15,330.891,461.43,294.969C483.174,258.264,488.538,213.779,469.1,175.802C447.828,134.242,408.732,102.21,362.064,100.831C313.194,99.387,269.277,127.604,243.483,169.137C216.043,213.319,201.823,270.108,229.639,314.055C256.209,356.033,312.552,360.559,362.064,356.482" fill="rgba(194, 188, 22, 0.4)" class="triangle-float2"></path><path d="M31.887,32.914C54.074,32.883,77.213,28.799,89.819,10.541C104.173,-10.249,109.252,-38.414,95.971,-59.905C83.164,-80.629,56.245,-83.644,31.887,-83.206C8.525,-82.785,-16.012,-77.528,-28.323,-57.668C-41.198,-36.898,-39.854,-9.647,-26.327,10.704C-14.005,29.242,9.627,32.945,31.887,32.914" fill="rgba(194, 188, 22, 0.4)" class="triangle-float1"></path><path d="M295.75106931554006 89.63073920218791L261.35083982575543 266.6045779741596 438.32467859772714 301.00480746394425 472.7249080875118 124.03096869197252z" fill="rgba(194, 188, 22, 0.4)" class="triangle-float1"></path><path d="M1215.6855236100935 237.0336423454297L1324.4418761818579 240.83149786435158 1328.2397317007797 132.07514529258714 1219.4833791290152 128.2772897736653z" fill="rgba(194, 188, 22, 0.4)" class="triangle-float2"></path><path d="M1186.1163536888976 44.59170786433978L1060.669284166468 66.71141087195466 1082.788987174083 192.15848039438404 1208.2360566965124 170.03877738676917z" fill="rgba(194, 188, 22, 0.4)" class="triangle-float3"></path><path d="M335.20694535077973 536.3557075542284L427.7024120771739 710.314379751119 601.6610842740645 617.8189130247248 509.1656175476703 443.8602408278342z" fill="rgba(194, 188, 22, 0.4)" class="triangle-float3"></path><path d="M576.198,576.303C644.824,579.869,713.363,551.764,749.816,493.51C788.448,431.773,794.248,351.417,755.515,289.743C718.751,231.203,645.281,214.585,576.198,217.057C512.058,219.352,449.074,245.776,417.813,301.829C387.249,356.633,399.889,422.606,431.252,476.957C462.63,531.333,513.503,573.045,576.198,576.303" fill="rgba(194, 188, 22, 0.4)" class="triangle-float1"></path><path d="M24.091597191738664 334.5055423185261L161.4119063526649 427.1292603830058 254.0356244171446 289.8089512220796 116.71531525621836 197.1852331575999z" fill="rgba(194, 188, 22, 0.4)" class="triangle-float2"></path><path d="M262.563,574.898C326.888,570.368,372.771,518.267,402.706,461.152C430.152,408.786,434.395,349.101,408.856,295.779C378.936,233.31,331.826,169.044,262.563,168.553C192.797,168.059,147.109,233.025,112.635,293.68C78.709,353.37,51.183,423.047,83.483,483.633C117.266,546.999,190.931,579.943,262.563,574.898" fill="rgba(194, 188, 22, 0.4)" class="triangle-float2"></path><path d="M1223.2915068443765 372.16666992282234L1315.7908347020505 302.4634267838859 1153.58826370544 279.6673420651483z" fill="rgba(194, 188, 22, 0.4)" class="triangle-float2"></path></g><defs><mask id="SvgjsMask1231"><rect width="1285" height="675" fill="#ffffff"></rect></mask><style>
            @keyframes float1 {
                0%{transform: translate(0, 0)}
                50%{transform: translate(-10px, 0)}
                100%{transform: translate(0, 0)}
            }

            .triangle-float1 {
                animation: float1 5s infinite;
            }

            @keyframes float2 {
                0%{transform: translate(0, 0)}
                50%{transform: translate(-5px, -5px)}
                100%{transform: translate(0, 0)}
            }

            .triangle-float2 {
                animation: float2 4s infinite;
            }

            @keyframes float3 {
                0%{transform: translate(0, 0)}
                50%{transform: translate(0, -10px)}
                100%{transform: translate(0, 0)}
            }

            .triangle-float3 {
                animation: float3 6s infinite;
            }
        </style></defs></svg>