<?xml version="1.0" standalone="no"?>
<!DOCTYPE svg PUBLIC "-//W3C//DTD SVG 20010904//EN"
 "http://www.w3.org/TR/2001/REC-SVG-20010904/DTD/svg10.dtd">
<svg version="1.0" xmlns="http://www.w3.org/2000/svg"
 width="555.000000pt" height="260.000000pt" viewBox="0 0 555.000000 260.000000"
 preserveAspectRatio="xMidYMid meet">

<g transform="translate(0.000000,260.000000) scale(0.100000,-0.100000)"
fill="#000000" stroke="none">
<path d="M0 1315 c0 -1254 0 -1285 19 -1285 10 0 21 -7 25 -15 7 -20 128 -22
125 -3 -3 26 2 36 21 41 23 6 43 -14 34 -37 -6 -14 11 -16 164 -16 142 0 171
2 176 15 7 19 30 19 46 0 19 -22 385 -22 394 0 7 20 75 20 82 0 5 -12 26 -15
100 -15 56 0 94 4 94 10 0 6 5 10 11 10 5 0 7 -4 4 -10 -4 -6 434 -10 1247 -9
1104 0 1251 1 1234 14 -16 12 -17 15 -4 15 9 0 18 -7 21 -15 5 -12 73 -14 482
-15 458 0 475 1 475 19 0 21 22 33 45 25 8 -4 15 -13 15 -21 0 -12 -3 -12 -16
2 -14 13 -19 14 -25 3 -17 -25 -8 -28 95 -28 80 0 106 3 116 15 16 19 49 19
56 0 5 -13 44 -15 260 -15 l254 0 0 1300 0 1300 -2775 0 -2775 0 0 -1285z
m5091 273 c10 -18 8 -24 -11 -40 -38 -31 -83 15 -48 50 19 19 46 14 59 -10z
m-111 -92 c0 -2 -8 -10 -17 -17 -16 -13 -17 -12 -4 4 13 16 21 21 21 13z
m-4153 -32 c4 -11 -1 -22 -12 -31 -16 -11 -21 -11 -33 1 -8 8 -12 22 -9 30 8
21 46 21 54 0z m-167 -49 c10 -12 10 -18 0 -30 -25 -30 -61 -7 -46 30 3 8 12
15 19 15 8 0 20 -7 27 -15z m379 -29 c15 -18 3 -46 -19 -46 -10 0 -21 7 -24
16 -6 16 9 44 24 44 4 0 13 -6 19 -14z m3801 -50 c0 -2 -8 -10 -17 -17 -16
-13 -17 -12 -4 4 13 16 21 21 21 13z m-4292 -89 c2 -9 -4 -20 -12 -23 -21 -8
-46 13 -39 32 8 20 47 13 51 -9z m4232 20 c0 -2 -10 -12 -22 -23 l-23 -19 19
23 c18 21 26 27 26 19z m25 -167 c0 -18 -6 -26 -23 -28 -13 -2 -25 3 -28 12
-10 26 4 48 28 44 17 -2 23 -10 23 -28z m-4581 -26 c19 -18 20 -28 6 -55 -16
-29 -58 -25 -72 7 -11 23 -10 29 11 45 28 23 35 23 55 3z m5306 -17 c0 -2 -12
-14 -27 -28 l-28 -24 24 28 c23 25 31 32 31 24z m-950 -21 c0 -2 -8 -10 -17
-17 -16 -13 -17 -12 -4 4 13 16 21 21 21 13z m-3960 -85 c0 -5 3 -18 7 -28 6
-16 5 -17 -12 -3 -11 9 -16 10 -11 3 4 -8 2 -13 -8 -13 -19 0 -29 17 -22 35 6
16 46 21 46 6z m-309 -28 c13 -16 12 -17 -3 -4 -10 7 -18 15 -18 17 0 8 8 3
21 -13z m3303 -65 c19 -27 5 -58 -28 -58 -35 0 -52 25 -38 55 14 31 46 32 66
3z m840 6 c29 -29 13 -74 -25 -74 -44 0 -56 49 -21 78 20 16 27 15 46 -4z
m-3070 -20 c20 -19 20 -19 0 -38 -12 -12 -20 -13 -35 -6 -22 12 -25 30 -7 48
16 16 23 15 42 -4z m734 -26 c17 -17 15 -43 -5 -59 -15 -12 -16 -12 -10 3 3 9
3 19 -1 21 -4 2 -1 2 6 1 15 -4 16 8 0 24 -15 15 -32 16 -23 2 4 -6 1 -9 -6
-8 -7 2 -15 -5 -17 -16 -3 -13 0 -16 9 -11 7 5 10 4 5 -3 -3 -5 0 -13 6 -16 7
-3 4 -5 -7 -3 -12 1 -21 11 -23 25 -6 42 37 69 66 40z m3162 -1 c0 -2 -10 -12
-22 -23 l-23 -19 19 23 c18 21 26 27 26 19z m-2860 -21 c0 -8 -4 -17 -9 -21
-12 -7 -24 12 -16 25 9 15 25 12 25 -4z m1375 -46 c0 -18 -6 -26 -23 -28 -24
-4 -38 18 -28 44 3 9 15 14 28 12 17 -2 23 -10 23 -28z m-2708 4 c6 -17 -9
-37 -31 -40 -19 -3 -29 25 -15 42 15 19 38 18 46 -2z m1033 -89 c0 -21 -34
-37 -48 -23 -26 26 -2 64 30 47 10 -5 18 -16 18 -24z m3365 -15 c0 -8 -8 -16
-17 -18 -13 -2 -18 3 -18 18 0 15 5 20 18 18 9 -2 17 -10 17 -18z m-4401 -22
c14 -19 14 -24 2 -36 -18 -18 -56 -7 -56 17 0 17 18 41 31 41 5 0 15 -10 23
-22z m1340 -24 c17 -7 22 -34 6 -34 -5 0 -10 7 -10 15 0 8 -7 15 -16 15 -11 0
-15 -6 -11 -20 3 -11 1 -20 -4 -20 -10 0 -12 33 -2 43 8 9 17 9 37 1z m5 -97
c-10 -11 -25 -17 -33 -14 -17 7 -22 47 -6 47 5 0 7 -6 4 -14 -3 -7 2 -16 10
-19 16 -6 20 2 16 38 -2 20 -1 20 13 1 13 -17 12 -22 -4 -39z m417 31 c5 -7 3
-8 -6 -3 -10 6 -12 4 -7 -8 3 -10 2 -17 -3 -17 -6 0 -10 9 -10 20 0 22 15 27
26 8z m-2343 -33 c-3 -9 -8 -14 -10 -11 -3 3 -2 9 2 15 9 16 15 13 8 -4z
m2600 -34 c7 -8 -7 -2 -30 14 -24 15 -43 30 -43 32 0 7 61 -31 73 -46z m-216
33 c-3 -3 -12 -4 -19 -1 -8 3 -5 6 6 6 11 1 17 -2 13 -5z m717 -9 c13 -14 13
-45 -1 -45 -3 0 -3 6 0 14 8 20 -15 37 -33 25 -13 -8 -12 -12 4 -24 16 -12 17
-15 4 -15 -21 0 -31 29 -17 46 15 18 24 18 43 -1z m-2553 -15 c41 -23 6 -86
-38 -69 -25 9 -31 47 -11 67 15 15 24 15 49 2z m4439 -30 c0 -15 -18 -21 -45
-14 l-26 6 23 13 c24 12 48 9 48 -5z m-2325 -20 c3 -5 1 -10 -4 -10 -6 0 -11
5 -11 10 0 6 2 10 4 10 3 0 8 -4 11 -10z m2242 4 c-3 -3 -12 -4 -19 -1 -8 3
-5 6 6 6 11 1 17 -2 13 -5z m-3011 -28 c0 -15 -5 -21 -10 -16 -5 5 -6 16 -3
24 9 23 15 19 13 -8z m38 8 c8 -21 8 -21 -10 -28 -13 -5 -14 -4 -6 7 9 10 8
17 0 25 -8 8 -9 12 -1 12 6 0 14 -7 17 -16z m1356 -4 c0 -5 -5 -12 -11 -16
-14 -8 -33 11 -25 25 7 11 36 4 36 -9z m-2937 -20 c3 -11 1 -18 -4 -14 -5 3
-9 12 -9 20 0 20 7 17 13 -6z m2402 -25 l20 -16 -20 10 c-11 5 -29 17 -40 26
l-20 16 20 -10 c11 -5 29 -17 40 -26z m-1857 -2 c14 -24 -6 -63 -33 -63 -25 0
-45 18 -45 40 0 38 60 56 78 23z m3119 11 c-3 -3 -12 -4 -19 -1 -8 3 -5 6 6 6
11 1 17 -2 13 -5z m70 0 c-3 -3 -12 -4 -19 -1 -8 3 -5 6 6 6 11 1 17 -2 13 -5z
m-1039 -11 c-10 -2 -18 -9 -18 -15 0 -6 -3 -9 -6 -5 -10 10 6 27 24 26 15 -1
15 -2 0 -6z m879 1 c-3 -3 -12 -4 -19 -1 -8 3 -5 6 6 6 11 1 17 -2 13 -5z
m-847 -23 c0 -24 -37 -38 -54 -21 -8 10 -6 11 12 5 19 -5 25 -2 29 14 7 26 13
27 13 2z m1215 9 c-3 -5 -12 -10 -18 -10 -7 0 -6 4 3 10 19 12 23 12 15 0z
m-125 -44 c0 -2 -9 -6 -20 -9 -11 -3 -18 -1 -14 4 5 9 34 13 34 5z m-1387 -33
c-7 -2 -19 -2 -25 0 -7 3 -2 5 12 5 14 0 19 -2 13 -5z m-268 -63 c3 -6 -1 -7
-9 -4 -18 7 -21 14 -7 14 6 0 13 -4 16 -10z m460 0 c3 -6 -1 -7 -9 -4 -18 7
-21 14 -7 14 6 0 13 -4 16 -10z m-1385 -14 c0 -2 -7 -7 -16 -10 -8 -3 -12 -2
-9 4 6 10 25 14 25 6z m28 -21 c-3 -3 -9 2 -12 12 -6 14 -5 15 5 6 7 -7 10
-15 7 -18z m1417 -3 c-3 -3 -11 0 -18 7 -9 10 -8 11 6 5 10 -3 15 -9 12 -12z
m475 8 c-8 -5 -24 -9 -35 -9 -16 1 -16 2 5 9 35 11 48 11 30 0z m-1929 -27
c13 -16 12 -17 -3 -4 -17 13 -22 21 -14 21 2 0 10 -8 17 -17z m786 -19 c-3 -3
-12 -4 -19 -1 -8 3 -5 6 6 6 11 1 17 -2 13 -5z m-2482 -54 c0 -18 -6 -26 -23
-28 -24 -4 -38 18 -28 44 3 9 15 14 28 12 17 -2 23 -10 23 -28z m3460 20 c3
-6 -1 -7 -9 -4 -18 7 -21 14 -7 14 6 0 13 -4 16 -10z m-3175 -36 c0 -2 -12 -4
-26 -4 -14 0 -23 4 -20 9 6 8 46 4 46 -5z m714 -3 c4 -5 -3 -7 -14 -4 -12 3
-20 0 -20 -8 0 -7 -3 -10 -6 -6 -9 9 5 27 21 27 8 0 16 -4 19 -9z m2551 -11
c-3 -5 -15 -10 -25 -10 -10 0 -21 -8 -23 -17 -4 -14 -5 -13 -6 4 -1 16 6 23
27 26 15 2 28 5 30 6 2 0 0 -3 -3 -9z m-2312 -17 c-7 -2 -21 -2 -30 0 -10 3
-4 5 12 5 17 0 24 -2 18 -5z m480 -10 c-7 -2 -19 -2 -25 0 -7 3 -2 5 12 5 14
0 19 -2 13 -5z"/>
<path d="M3562 857 c-9 -10 -8 -18 2 -32 17 -24 44 -13 42 17 -1 26 -27 35
-44 15z"/>
<path d="M4418 841 c-16 -19 -16 -20 4 -26 24 -8 43 8 35 29 -8 21 -19 20 -39
-3z"/>
<path d="M1345 830 c-3 -6 1 -13 10 -16 19 -8 30 0 20 15 -8 14 -22 14 -30 1z"/>
<path d="M3757 756 c-6 -16 19 -30 28 -16 7 11 -2 30 -15 30 -4 0 -10 -6 -13
-14z"/>
<path d="M1057 745 c3 -8 9 -12 14 -9 12 7 11 11 -5 17 -10 4 -13 1 -9 -8z"/>
<path d="M2076 683 c-13 -14 -5 -33 14 -33 11 0 20 6 20 14 0 15 -24 28 -34
19z"/>
<path d="M1047 624 c-13 -13 -7 -23 13 -21 11 1 19 6 17 11 -4 13 -21 18 -30
10z"/>
<path d="M1009 470 c-5 -40 -3 -45 21 -45 26 0 34 20 17 43 -11 14 -36 16 -38
2z m24 -15 c4 -8 3 -16 -1 -19 -4 -3 -9 4 -9 15 -2 23 3 25 10 4z"/>
<path d="M1339 368 c-9 -39 -7 -47 12 -53 25 -8 42 6 37 31 -2 15 -46 34 -49
22z"/>
<path d="M350 90 c-12 -7 -12 -12 -2 -22 9 -9 15 -9 24 0 16 16 -2 34 -22 22z
m20 -10 c0 -5 -5 -10 -11 -10 -5 0 -7 5 -4 10 3 6 8 10 11 10 2 0 4 -4 4 -10z"/>
<path d="M180 23 c0 -7 7 -13 15 -13 8 0 15 6 15 13 0 8 -7 14 -15 14 -8 0
-15 -6 -15 -14z"/>
<path d="M1014 9 c-3 -5 11 -9 31 -9 20 0 34 4 31 9 -3 5 -17 9 -31 9 -14 0
-28 -4 -31 -9z"/>
<path d="M4996 12 c-2 -4 4 -9 15 -9 11 -1 17 2 14 8 -7 11 -22 12 -29 1z"/>
<path d="M8 3 c7 -3 16 -2 19 1 4 3 -2 6 -13 5 -11 0 -14 -3 -6 -6z"/>
<path d="M578 3 c7 -3 16 -2 19 1 4 3 -2 6 -13 5 -11 0 -14 -3 -6 -6z"/>
</g>
</svg>
