<svg xmlns="http://www.w3.org/2000/svg" version="1.1" xmlns:xlink="http://www.w3.org/1999/xlink" xmlns:svgjs="http://svgjs.com/svgjs" width="1265" height="562" preserveAspectRatio="none" viewBox="0 0 1265 562"><g mask="url(&quot;#SvgjsMask2326&quot;)" fill="none"><path d="M134.06077967697627-50.96616946117954L-32.46347454736397-24.591318655396606 160.4356304827592 115.5580847631607z" fill="rgba(27, 97, 174, 0.4)" class="triangle-float2"></path><path d="M79.2340962788538 154.41723863035477L171.30678605693646 89.94724718449716 28.565453999108698-15.926791759698006z" fill="rgba(27, 97, 174, 0.4)" class="triangle-float2"></path><path d="M-58.51776962034555 122.4323351711399L104.33732469199137 166.06922617542497 147.97421569627645 3.214131863088056-14.880878616060478-40.42275914119702z" fill="rgba(27, 97, 174, 0.4)" class="triangle-float3"></path><path d="M1334.0478064192657 99.32627825411174L1260.1384310706273-52.21039795192783 1108.6017548645877 21.698977396710603 1182.5111302132261 173.23565360275018z" fill="rgba(27, 97, 174, 0.4)" class="triangle-float1"></path><path d="M1163.735,52.365C1178.406,52.22,1192.107,44.454,1199.16,31.588C1205.963,19.177,1203.276,4.629,1196.802,-7.956C1189.58,-21.996,1179.524,-37.217,1163.735,-37.277C1147.888,-37.338,1137.615,-22.23,1130.228,-8.21C1123.461,4.633,1120.048,19.598,1127.075,32.301C1134.302,45.366,1148.805,52.513,1163.735,52.365" fill="rgba(27, 97, 174, 0.4)" class="triangle-float3"></path><path d="M1155.0750071284522-20.527241481735544L1175.052752815503 171.30678605693646 1313.161787482627 74.60179888815001z" fill="rgba(27, 97, 174, 0.4)" class="triangle-float3"></path><path d="M26.40193274319163 376.73039057683786L-62.94245520652672 519.7112995888112 80.0384538054467 609.0556875385296 169.38284175516503 466.0747785265562z" fill="rgba(27, 97, 174, 0.4)" class="triangle-float2"></path><path d="M135.844,736.288C193.865,741.835,256.751,722.553,285.794,672.018C314.764,621.609,294.924,560.733,265.582,510.539C236.586,460.936,193.291,416.531,135.844,415.503C76.932,414.449,22.554,452.275,-2.196,505.746C-23.95,552.745,1.893,602.987,28.498,647.42C54.075,690.136,86.282,731.55,135.844,736.288" fill="rgba(27, 97, 174, 0.4)" class="triangle-float1"></path><path d="M28.056,526.4C46.75,526.085,65.551,520.846,75.95,505.308C87.59,487.915,91.079,465.424,81.219,446.963C70.833,427.519,50.045,414.079,28.056,415.642C7.99,417.068,-3.677,436.108,-13.452,453.691C-22.839,470.576,-32.292,490.191,-22.714,506.968C-13.085,523.834,8.638,526.727,28.056,526.4" fill="rgba(27, 97, 174, 0.4)" class="triangle-float2"></path><path d="M1283.5355810172525 438.03726329634213L1182.5111302132261 388.7643463972498 1159.113980266601 564.9374810528356z" fill="rgba(27, 97, 174, 0.4)" class="triangle-float2"></path><path d="M1224.2359830037449 406.10583776236615L1114.7167877218844 431.39033627061656 1207.4031331251904 583.026879939282z" fill="rgba(27, 97, 174, 0.4)" class="triangle-float1"></path><path d="M1176.93,529.124C1195.095,528.701,1206.415,511.928,1215.873,496.414C1225.923,479.929,1237.81,461.055,1228.851,443.953C1219.51,426.123,1197.059,422.131,1176.93,422.076C1156.677,422.02,1134.326,425.949,1124.514,443.667C1114.895,461.037,1124.335,481.376,1134.717,498.302C1144.481,514.22,1158.261,529.558,1176.93,529.124" fill="rgba(27, 97, 174, 0.4)" class="triangle-float3"></path></g><defs><mask id="SvgjsMask2326"><rect width="1265" height="562" fill="#ffffff"></rect></mask><style>
            @keyframes float1 {
                0%{transform: translate(0, 0)}
                50%{transform: translate(-10px, 0)}
                100%{transform: translate(0, 0)}
            }

            .triangle-float1 {
                animation: float1 5s infinite;
            }

            @keyframes float2 {
                0%{transform: translate(0, 0)}
                50%{transform: translate(-5px, -5px)}
                100%{transform: translate(0, 0)}
            }

            .triangle-float2 {
                animation: float2 4s infinite;
            }

            @keyframes float3 {
                0%{transform: translate(0, 0)}
                50%{transform: translate(0, -10px)}
                100%{transform: translate(0, 0)}
            }

            .triangle-float3 {
                animation: float3 6s infinite;
            }
        </style></defs></svg>