<svg xmlns="http://www.w3.org/2000/svg" version="1.1" xmlns:xlink="http://www.w3.org/1999/xlink" xmlns:svgjs="http://svgjs.com/svgjs" width="1240" height="400" preserveAspectRatio="none" viewBox="0 0 1240 400"><g mask="url(&quot;#SvgjsMask2137&quot;)" fill="none"><path d="M94.257,201.863C130.191,201.773,155.913,171.346,173.629,140.083C191.03,109.376,202.019,72.791,184.883,41.935C167.35,10.363,130.353,-1.709,94.257,-2.841C55.614,-4.053,12.076,2.171,-6.779,35.924C-25.359,69.185,-5.618,107.94,14.196,140.481C32.94,171.266,58.215,201.953,94.257,201.863" fill="rgba(27, 97, 174, 0.4)" class="triangle-float1"></path><path d="M134.22347077877794 36.709643896221856L46.46102658447745-45.13015931127796-35.37877662302236 42.63228488302253 52.383667571278124 124.47208809052233z" fill="rgba(27, 97, 174, 0.4)" class="triangle-float2"></path><path d="M99.358,215.358C137.219,212.324,160.289,178.39,179.717,145.753C199.816,111.989,223.018,73.306,204.569,38.614C185.441,2.645,140.039,-7.534,99.358,-5.354C62.671,-3.388,31.821,17.986,12.018,48.932C-9.813,83.048,-25.73,124.847,-6.908,160.711C12.93,198.513,56.803,218.769,99.358,215.358" fill="rgba(27, 97, 174, 0.4)" class="triangle-float3"></path><path d="M1250.089,183.799C1287.243,185.274,1327.073,177.427,1347.098,146.097C1368.422,112.733,1364.407,69.805,1345.009,35.286C1325.183,0.005,1290.552,-27.266,1250.089,-26.535C1210.644,-25.823,1178.878,3.481,1160.928,38.612C1144.61,70.549,1146.798,108.327,1165.566,138.888C1183.461,168.027,1215.921,182.442,1250.089,183.799" fill="rgba(27, 97, 174, 0.4)" class="triangle-float1"></path><path d="M1248.2297058389024 93.19258435391629L1283.2993975820286 21.289060649982915 1157.9092661545656 4.636284887260359z" fill="rgba(27, 97, 174, 0.4)" class="triangle-float2"></path><path d="M1109.8387229570124 12.434931328464252L1166.1753104913194 118.38864247153549 1272.1290216343905 62.0520549372286 1215.7924341000835-43.90165620584265z" fill="rgba(27, 97, 174, 0.4)" class="triangle-float3"></path><path d="M95.475,503.228C133.642,505.303,177.409,506.816,198.689,475.065C221.605,440.873,212.316,395.543,191.413,360.085C170.873,325.243,135.906,298.893,95.475,299.981C56.569,301.027,25.99,330.463,8.078,365.016C-8.334,396.674,-9.029,434.668,10.029,464.807C27.918,493.097,62.053,501.411,95.475,503.228" fill="rgba(27, 97, 174, 0.4)" class="triangle-float2"></path><path d="M105.709,538.844C149.762,542.006,198.638,530.351,219.981,491.684C240.875,453.83,222.087,408.264,197.365,372.791C176.501,342.853,142.139,329.823,105.709,327.719C64.021,325.311,15.047,325.154,-6.326,361.026C-27.964,397.343,-5.824,441.324,16.711,477.092C37.341,509.835,67.108,536.073,105.709,538.844" fill="rgba(27, 97, 174, 0.4)" class="triangle-float1"></path><path d="M51.489951885404295 453.578148595492L125.36932892448324 359.0168581626853 30.80803849167657 285.1374811236064-43.07133854740238 379.698771556413z" fill="rgba(27, 97, 174, 0.4)" class="triangle-float3"></path><path d="M1294.1516954557503 364.93428127456906L1213.8560226926872 275.7569022172818 1124.6786436354 356.05257498034473 1204.974316398463 445.22995403763207z" fill="rgba(27, 97, 174, 0.4)" class="triangle-float2"></path><path d="M1293.3633688799562 373.1213657930163L1221.1455661017103 277.28510458734115 1125.3093048960352 349.5029073655869 1197.527107674281 445.3391685712621z" fill="rgba(27, 97, 174, 0.4)" class="triangle-float3"></path><path d="M1111.98119328544 393.7872543044533L1221.6066482025522 442.59565147354937 1160.789590454536 284.1617993873412z" fill="rgba(27, 97, 174, 0.4)" class="triangle-float1"></path></g><defs><mask id="SvgjsMask2137"><rect width="1240" height="400" fill="#ffffff"></rect></mask><style>
            @keyframes float1 {
                0%{transform: translate(0, 0)}
                50%{transform: translate(-10px, 0)}
                100%{transform: translate(0, 0)}
            }

            .triangle-float1 {
                animation: float1 5s infinite;
            }

            @keyframes float2 {
                0%{transform: translate(0, 0)}
                50%{transform: translate(-5px, -5px)}
                100%{transform: translate(0, 0)}
            }

            .triangle-float2 {
                animation: float2 4s infinite;
            }

            @keyframes float3 {
                0%{transform: translate(0, 0)}
                50%{transform: translate(0, -10px)}
                100%{transform: translate(0, 0)}
            }

            .triangle-float3 {
                animation: float3 6s infinite;
            }
        </style></defs></svg>