<svg xmlns="http://www.w3.org/2000/svg" version="1.1" xmlns:xlink="http://www.w3.org/1999/xlink" xmlns:svgjs="http://svgjs.com/svgjs" width="1400" height="561" preserveAspectRatio="none" viewBox="0 0 1400 561"><g mask="url(&quot;#SvgjsMask1660&quot;)" fill="none"><path d="M-76.10882896958012 58.40771369374776L44.95605942741497 175.31871744199688 40.802174778669-62.65717470324733z" fill="rgba(27, 97, 174, 0.4)" class="triangle-float3"></path><path d="M16.753,70.226C35.379,70.315,52.299,58.747,60.649,42.097C68.262,26.916,63.056,9.63,54.499,-5.04C46.026,-19.564,33.554,-32.458,16.753,-33.154C-1.137,-33.895,-17.882,-23.919,-26.83,-8.41C-35.774,7.091,-35.1,26.028,-26.425,41.681C-17.461,57.855,-1.739,70.138,16.753,70.226" fill="rgba(27, 97, 174, 0.4)" class="triangle-float1"></path><path d="M115.616,226.835C158.318,227.778,201.442,214.388,225.107,178.831C251.445,139.258,257.619,88.458,235.832,46.209C212.214,0.41,167.145,-33.101,115.616,-33.489C63.49,-33.881,15.101,-2.463,-7.776,44.376C-28.417,86.637,-12.159,135.216,14.188,174.175C37.06,207.996,74.797,225.934,115.616,226.835" fill="rgba(27, 97, 174, 0.4)" class="triangle-float1"></path><path d="M1464.697173159974 2.317633404997217L1307.5755873804949-57.995692503476825 1247.2622614720208 99.12589327600224 1404.3838472515 159.4392191844763z" fill="rgba(27, 97, 174, 0.4)" class="triangle-float3"></path><path d="M1257.2083095980054 91.12571648438778L1448.2790688059836 114.77111721448435 1385.2327791340856-41.273925509105965z" fill="rgba(27, 97, 174, 0.4)" class="triangle-float2"></path><path d="M1475.4046039593866 42.27830916693299L1344.6109386461783-63.636312646754625 1238.6963168324908 67.15735266645362 1369.489982145699 173.07197448014122z" fill="rgba(27, 97, 174, 0.4)" class="triangle-float2"></path><path d="M139.256,729.557C189.924,730.834,235.954,702.39,262.432,659.172C290.234,613.792,297.415,558.102,273.393,510.613C246.891,458.222,197.963,414.877,139.256,415.668C81.558,416.445,35.999,462.025,11.236,514.144C-10.214,559.289,0.852,610.255,26.387,653.222C51.258,695.07,90.59,728.33,139.256,729.557" fill="rgba(27, 97, 174, 0.4)" class="triangle-float1"></path><path d="M124.20295316823672 391.55765235462536L-39.097817564013496 432.27310738404947 1.6176374654106098 595.5738781162997 164.91840819766082 554.8584230868755z" fill="rgba(27, 97, 174, 0.4)" class="triangle-float3"></path><path d="M89.055,639.761C129.518,640.099,174.125,633.692,194.66,598.826C215.406,563.602,200.141,520.921,180,485.348C159.468,449.085,130.718,413.16,89.055,412.313C46.324,411.444,12.217,444.147,-8.53,481.514C-28.592,517.647,-35.231,561.909,-13.538,597.087C7.298,630.876,49.359,639.43,89.055,639.761" fill="rgba(27, 97, 174, 0.4)" class="triangle-float3"></path><path d="M1431.071,731.296C1484.041,730.721,1538.747,715.395,1566.092,670.026C1594.197,623.397,1585.435,565.783,1559.771,517.767C1532.286,466.344,1489.372,418.229,1431.071,417.409C1371.723,416.574,1324.487,462.015,1295.944,514.055C1268.62,563.873,1260.868,624.765,1290.878,673.012C1319.527,719.071,1376.832,731.885,1431.071,731.296" fill="rgba(27, 97, 174, 0.4)" class="triangle-float1"></path><path d="M1215.0600518035696 475.1549542151789L1304.245463974018 617.8814487983053 1446.9719585571445 528.6960366278568 1357.786546386696 385.96954204473036z" fill="rgba(27, 97, 174, 0.4)" class="triangle-float3"></path><path d="M1332.375486074067 373.1742030626841L1224.1943313638226 502.09948283960813 1353.1196111407467 610.2806375498527 1461.3007658509912 481.35535777292864z" fill="rgba(27, 97, 174, 0.4)" class="triangle-float3"></path></g><defs><mask id="SvgjsMask1660"><rect width="1400" height="561" fill="#ffffff"></rect></mask><style>
            @keyframes float1 {
                0%{transform: translate(0, 0)}
                50%{transform: translate(-10px, 0)}
                100%{transform: translate(0, 0)}
            }

            .triangle-float1 {
                animation: float1 5s infinite;
            }

            @keyframes float2 {
                0%{transform: translate(0, 0)}
                50%{transform: translate(-5px, -5px)}
                100%{transform: translate(0, 0)}
            }

            .triangle-float2 {
                animation: float2 4s infinite;
            }

            @keyframes float3 {
                0%{transform: translate(0, 0)}
                50%{transform: translate(0, -10px)}
                100%{transform: translate(0, 0)}
            }

            .triangle-float3 {
                animation: float3 6s infinite;
            }
        </style></defs></svg>