<svg xmlns="http://www.w3.org/2000/svg" version="1.1" xmlns:xlink="http://www.w3.org/1999/xlink" xmlns:svgjs="http://svgjs.com/svgjs" width="1600" height="800" preserveAspectRatio="none" viewBox="0 0 1600 800"><g mask="url(&quot;#SvgjsMask1167&quot;)" fill="none"><path d="M67.804,184.672C109.444,187.782,150.325,163.579,169.03,126.247C186.262,91.855,170.78,52.731,150.193,20.236C131.382,-9.456,102.948,-34.14,67.804,-33.533C33.508,-32.94,6.337,-7.268,-9.798,23.001C-24.899,51.33,-24.123,83.915,-10.231,112.857C6.164,147.014,30.021,181.85,67.804,184.672" fill="rgba(27, 97, 174, 0.4)" class="triangle-float3"></path><path d="M57.02009622919148-107.15629719098405L-90.7386578489665 81.96628367462927 98.38392301664682 229.72503775278727 246.1426770948048 40.60245688717393z" fill="rgba(27, 97, 174, 0.4)" class="triangle-float3"></path><path d="M15.50806329387325-97.19013983697992L-85.92031952389462 120.32372905181607 131.59354936490138 221.75211186958393 233.02193218266925 4.238242980787945z" fill="rgba(27, 97, 174, 0.4)" class="triangle-float2"></path><path d="M1662.3094032005265 203.70767686875982L1645.5678495019363-35.707695193598 1406.1524774395784-18.96614149500786 1422.8940311381687 220.44923056734996z" fill="rgba(27, 97, 174, 0.4)" class="triangle-float1"></path><path d="M1546.2427315860325-106.72673775991217L1354.5702091746823 37.708867796579426 1690.678337142524 84.94578465143812z" fill="rgba(27, 97, 174, 0.4)" class="triangle-float2"></path><path d="M1589.974,328.555C1656.799,332.262,1725.007,305.216,1758.854,247.477C1793.031,189.175,1786.336,114.417,1748.214,58.614C1714.225,8.861,1650.221,1.155,1589.974,0.269C1527.49,-0.65,1455.822,0.378,1423.465,53.84C1390.42,108.438,1417.621,175.806,1450.701,230.383C1482.256,282.444,1529.19,325.183,1589.974,328.555" fill="rgba(27, 97, 174, 0.4)" class="triangle-float1"></path><path d="M191.91414320985882 809.9858142810601L238.69361596549666 656.9770533269743-14.209261843450804 663.3122246705605z" fill="rgba(27, 97, 174, 0.4)" class="triangle-float2"></path><path d="M210.9860384958811 855.6400135458232L215.17461604082908 615.6765667082892-24.78883079670487 611.4879891633412-28.977408341652847 851.4514360008752z" fill="rgba(27, 97, 174, 0.4)" class="triangle-float3"></path><path d="M141.38971993467862 541.711307588234L-74.32085117712148 646.9203828176127 30.888224052257115 862.6309539294127 246.5987951640572 757.4218787000341z" fill="rgba(27, 97, 174, 0.4)" class="triangle-float2"></path><path d="M1512.076,803.013C1546.106,802.675,1579.081,789.985,1597.861,761.604C1618.834,729.909,1626.787,689.678,1609.451,655.856C1590.672,619.22,1553.24,593.689,1512.076,594.243C1471.729,594.786,1437.896,622.692,1419.137,658.417C1401.697,691.631,1403.001,731.782,1423.285,763.339C1442.071,792.567,1477.333,803.358,1512.076,803.013" fill="rgba(27, 97, 174, 0.4)" class="triangle-float2"></path><path d="M1575.1301373430713 900.3225540859758L1687.803312411685 688.4151317998333 1363.2227150569288 787.649379017362z" fill="rgba(27, 97, 174, 0.4)" class="triangle-float1"></path><path d="M1505.389,792.577C1539.795,792.308,1575.556,785.521,1594.914,757.076C1616.709,725.051,1621.9,682.845,1603.129,648.958C1583.84,614.135,1545.197,595.304,1505.389,595.456C1465.854,595.607,1428.362,615.268,1408.935,649.701C1389.819,683.583,1391.636,726.254,1413.403,758.497C1433.012,787.544,1470.344,792.851,1505.389,792.577" fill="rgba(27, 97, 174, 0.4)" class="triangle-float2"></path></g><defs><mask id="SvgjsMask1167"><rect width="1600" height="800" fill="#ffffff"></rect></mask><style>
            @keyframes float1 {
                0%{transform: translate(0, 0)}
                50%{transform: translate(-10px, 0)}
                100%{transform: translate(0, 0)}
            }

            .triangle-float1 {
                animation: float1 5s infinite;
            }

            @keyframes float2 {
                0%{transform: translate(0, 0)}
                50%{transform: translate(-5px, -5px)}
                100%{transform: translate(0, 0)}
            }

            .triangle-float2 {
                animation: float2 4s infinite;
            }

            @keyframes float3 {
                0%{transform: translate(0, 0)}
                50%{transform: translate(0, -10px)}
                100%{transform: translate(0, 0)}
            }

            .triangle-float3 {
                animation: float3 6s infinite;
            }
        </style></defs></svg>